<?xml version="1.0" encoding="iso-8859-1" standalone="no"?> 
<?xml-stylesheet href="fig3.css" type="text/css"?> 
<svg xmlns="http://www.w3.org/2000/svg" xmlns:xlink="http://www.w3.org/1999/xlink" width="136.19287pt" height="63.66241pt" viewBox="-40.24248 -22.67311 136.19287 63.66241 "> 
<g transform="translate(0, 40.9893 ) scale(1,-1) translate(0,22.67311 )"> 
            <g>
 <g stroke="rgb(0.0%,0.0%,0.0%)">
 <g fill="rgb(0.0%,0.0%,0.0%)">
 <g stroke-width="0.4pt">
 <g>
 <g>
 <g stroke="rgb(0.0%,0.0%,0.0%)">
 <g>
 <g stroke="rgb(0.0%,0.0%,0.0%)">
 <g>
 <g stroke-width="1.4pt">
 <path d=" M  12.50002 0.0 C  12.50002 6.90366 6.90366 12.50002 0.0 12.50002 C  -6.90366 12.50002 -12.50002 6.90366 -12.50002 0.0 C  -12.50002 -6.90366 -6.90366 -12.50002 0.0 -12.50002 C  6.90366 -12.50002 12.50002 -6.90366 12.50002 0.0 Z M  0.0 0.0  " style="fill:none"/>
 <g>
 <g stroke-width="0.6pt">
 <g stroke="rgb(100.0%,100.0%,100.0%)">
 <path d=" M  12.50002 0.0 C  12.50002 6.90366 6.90366 12.50002 0.0 12.50002 C  -6.90366 12.50002 -12.50002 6.90366 -12.50002 0.0 C  -12.50002 -6.90366 -6.90366 -12.50002 0.0 -12.50002 C  6.90366 -12.50002 12.50002 -6.90366 12.50002 0.0 Z M  0.0 0.0  " style="fill:none"/>
 </g>
 </g>
 </g>
 </g>
 </g>
 </g>
 </g>
 <g>
 <g transform="matrix(1.0,0.0,0.0,1.0,-4.65451,-1.18056)">
 <g fill="rgb(0.0%,0.0%,0.0%)">
 <text style="stroke:none" transform="scale(1,-1) translate(4.65451,0)" text-anchor="middle"  font-size="10"> 
<tspan font-family="cmmi" font-size="10">q</tspan><tspan baseline-shift="sub"><tspan font-family="cmr" font-size="7">1</tspan></tspan></text> 
</g>
 </g>
 </g>
 </g>
 </g>
 <g>
 <g>
 <g transform="matrix(1.0,0.0,0.0,1.0,0.0,30.75935)">
 <g fill="rgb(0.0%,0.0%,0.0%)">
 <text style="stroke:none" transform="scale(1,-1) translate(0.0,0)" text-anchor="middle"  font-size="10"> 
</text> 
</g>
 </g>
 </g>
 </g>
 <g>
 <g stroke="rgb(0.0%,0.0%,0.0%)">
 <g>
 <g stroke="rgb(0.0%,0.0%,0.0%)">
 <path d=" M  69.40552 0.0 C  69.40552 6.90366 63.80916 12.50002 56.9055 12.50002 C  50.00185 12.50002 44.40549 6.90366 44.40549 0.0 C  44.40549 -6.90366 50.00185 -12.50002 56.9055 -12.50002 C  63.80916 -12.50002 69.40552 -6.90366 69.40552 0.0 Z M  56.9055 0.0  " style="fill:none"/>
 </g>
 </g>
 <g>
 <g transform="matrix(1.0,0.0,0.0,1.0,52.25099,-1.18056)">
 <g fill="rgb(0.0%,0.0%,0.0%)">
 <text style="stroke:none" transform="scale(1,-1) translate(4.65451,0)" text-anchor="middle"  font-size="10"> 
<tspan font-family="cmmi" font-size="10">q</tspan><tspan baseline-shift="sub"><tspan font-family="cmr" font-size="7">2</tspan></tspan></text> 
</g>
 </g>
 </g>
 </g>
 </g>
 <g>
 <path d=" M  0.0 27.22638 L  0.0 14.46  " style="fill:none"/>
 <g>
 <g transform="matrix(0.0,-1.0,1.0,0.0,0.0,14.46)">
 <g>
 <g stroke-width="0.31999pt">
 <g stroke-dasharray="none" stroke-dashoffset="0.0pt">
 <g stroke-linecap="round">
 <g stroke-linejoin="round">
 <path d=" M  -1.19998 1.59998 C  -1.09998 0.99998 0.0 0.09999 0.29999 0.0 C  0.0 -0.09999 -1.09998 -0.99998 -1.19998 -1.59998  " style="fill:none"/>
 </g>
 </g>
 </g>
 </g>
 </g>
  </g>
 </g>
 <g>
 <g>
 <g transform="matrix(1.0,0.0,0.0,1.0,3.53297,20.1132)">
 <g fill="rgb(0.0%,0.0%,0.0%)">
 <text style="stroke:none" transform="scale(1,-1) translate(0.0,0)" text-anchor="middle"  font-size="10"> 
</text> 
</g>
 </g>
 </g>
 </g>
 </g>
 <g>
 <path d=" M  -12.58165 -3.371 C  -32.90077 -8.81589 -32.90077 8.81589 -13.99464 3.75  " style="fill:none"/>
 <g>
 <g transform="matrix(0.96782,-0.25932,0.25932,0.96782,-13.99466,3.75002)">
 <g>
 <g stroke-width="0.31999pt">
 <g stroke-dasharray="none" stroke-dashoffset="0.0pt">
 <g stroke-linecap="round">
 <g stroke-linejoin="round">
 <path d=" M  -1.19998 1.59998 C  -1.09998 0.99998 0.0 0.09999 0.29999 0.0 C  0.0 -0.09999 -1.09998 -0.99998 -1.19998 -1.59998  " style="fill:none"/>
 </g>
 </g>
 </g>
 </g>
 </g>
  </g>
 </g>
 <g>
 <g>
 <g transform="matrix(1.0,0.0,0.0,1.0,-36.9095,-3.47217)">
 <g fill="rgb(0.0%,0.0%,0.0%)">
 <text style="stroke:none" transform="scale(1,-1) translate(2.77779,0)" text-anchor="middle"  font-size="10"> 
b</text> 
</g>
 </g>
 </g>
 </g>
 </g>
 <g>
 <path d=" M  11.29407 6.52023 C  23.00124 13.21164 34.22353 13.16273 44.60913 7.10631  " style="fill:none"/>
 <g>
 <g transform="matrix(0.86504,-0.50449,0.50449,0.86504,44.60912,7.10632)">
 <g>
 <g stroke-width="0.31999pt">
 <g stroke-dasharray="none" stroke-dashoffset="0.0pt">
 <g stroke-linecap="round">
 <g stroke-linejoin="round">
 <path d=" M  -1.19998 1.59998 C  -1.09998 0.99998 0.0 0.09999 0.29999 0.0 C  0.0 -0.09999 -1.09998 -0.99998 -1.19998 -1.59998  " style="fill:none"/>
 </g>
 </g>
 </g>
 </g>
 </g>
  </g>
 </g>
 <g>
 <g>
 <g transform="matrix(1.0,0.0,0.0,1.0,26.10504,15.03459)">
 <g fill="rgb(0.0%,0.0%,0.0%)">
 <text style="stroke:none" transform="scale(1,-1) translate(2.5,0)" text-anchor="middle"  font-size="10"> 
a</text> 
</g>
 </g>
 </g>
 </g>
 </g>
 <g>
 <path d=" M  53.61229 12.2913 C  48.29306 32.1415 65.51794 32.1415 60.5777 13.7043  " style="fill:none"/>
 <g>
 <g transform="matrix(-0.25932,-0.96782,0.96782,-0.25932,60.57771,13.70432)">
 <g>
 <g stroke-width="0.31999pt">
 <g stroke-dasharray="none" stroke-dashoffset="0.0pt">
 <g stroke-linecap="round">
 <g stroke-linejoin="round">
 <path d=" M  -1.19998 1.59998 C  -1.09998 0.99998 0.0 0.09999 0.29999 0.0 C  0.0 -0.09999 -1.09998 -0.99998 -1.19998 -1.59998  " style="fill:none"/>
 </g>
 </g>
 </g>
 </g>
 </g>
  </g>
 </g>
 <g>
 <g>
 <g transform="matrix(1.0,0.0,0.0,1.0,54.12775,30.7119)">
 <g fill="rgb(0.0%,0.0%,0.0%)">
 <text style="stroke:none" transform="scale(1,-1) translate(2.77779,0)" text-anchor="middle"  font-size="10"> 
b</text> 
</g>
 </g>
 </g>
 </g>
 </g>
 <g>
 <path d=" M  69.19681 3.29321 C  89.047 8.61244 89.047 -8.61244 70.6098 -3.6722  " style="fill:none"/>
 <g>
 <g transform="matrix(-0.96782,0.25932,-0.25932,-0.96782,70.60982,-3.67221)">
 <g>
 <g stroke-width="0.31999pt">
 <g stroke-dasharray="none" stroke-dashoffset="0.0pt">
 <g stroke-linecap="round">
 <g stroke-linejoin="round">
 <path d=" M  -1.19998 1.59998 C  -1.09998 0.99998 0.0 0.09999 0.29999 0.0 C  0.0 -0.09999 -1.09998 -0.99998 -1.19998 -1.59998  " style="fill:none"/>
 </g>
 </g>
 </g>
 </g>
 </g>
  </g>
 </g>
 <g>
 <g>
 <g transform="matrix(1.0,0.0,0.0,1.0,87.61742,-2.15282)">
 <g fill="rgb(0.0%,0.0%,0.0%)">
 <text style="stroke:none" transform="scale(1,-1) translate(2.5,0)" text-anchor="middle"  font-size="10"> 
a</text> 
</g>
 </g>
 </g>
 </g>
 </g>
 <g>
 <path d=" M  45.87207 -6.36977 C  34.22353 -13.16273 23.00124 -13.21164 12.56247 -7.24522  " style="fill:none"/>
 <g>
 <g transform="matrix(-0.86877,0.49658,-0.49658,-0.86877,12.56247,-7.24524)">
 <g>
 <g stroke-width="0.31999pt">
 <g stroke-dasharray="none" stroke-dashoffset="0.0pt">
 <g stroke-linecap="round">
 <g stroke-linejoin="round">
 <path d=" M  -1.19998 1.59998 C  -1.09998 0.99998 0.0 0.09999 0.29999 0.0 C  0.0 -0.09999 -1.09998 -0.99998 -1.19998 -1.59998  " style="fill:none"/>
 </g>
 </g>
 </g>
 </g>
 </g>
  </g>
 </g>
 <g>
 <g>
 <g transform="matrix(1.0,0.0,0.0,1.0,26.10504,-19.34013)">
 <g fill="rgb(0.0%,0.0%,0.0%)">
 <text style="stroke:none" transform="scale(1,-1) translate(2.5,0)" text-anchor="middle"  font-size="10"> 
a</text> 
</g>
 </g>
 </g>
 </g>
 </g>
 </g>
 </g>
 </g>
 </g>
 </g>
 
                                         </g> 
</svg> 
